<svg width="11" height="10" viewBox="0 0 11 10" fill="none" xmlns="http://www.w3.org/2000/svg">
<path d="M8.53635 1.73C8.4176 1.73 8.30152 1.76519 8.20278 1.83112C8.10404 1.89705 8.02708 1.99075 7.98164 2.10039C7.9362 2.21003 7.92431 2.33067 7.94747 2.44705C7.97064 2.56344 8.02782 2.67035 8.11179 2.75426C8.19576 2.83818 8.30275 2.89532 8.41922 2.91847C8.53569 2.94162 8.65641 2.92974 8.76612 2.88433C8.87584 2.83892 8.96961 2.76201 9.03558 2.66334C9.10156 2.56467 9.13677 2.44867 9.13677 2.33C9.13677 2.17087 9.07351 2.01826 8.96091 1.90574C8.84831 1.79321 8.69559 1.73 8.53635 1.73ZM10.838 2.94C10.8282 2.52515 10.7505 2.1147 10.6078 1.725C10.4806 1.39157 10.2826 1.08964 10.0274 0.84C9.77963 0.583713 9.47679 0.387088 9.14177 0.265C8.75283 0.11808 8.34164 0.038605 7.92593 0.03C7.39556 -2.79397e-08 7.22544 0 5.8645 0C4.50355 0 4.33343 -2.79397e-08 3.80307 0.03C3.38735 0.038605 2.97616 0.11808 2.58722 0.265C2.25283 0.388324 1.95025 0.58478 1.70161 0.84C1.44514 1.08759 1.24838 1.39022 1.12621 1.725C0.979185 2.11367 0.899655 2.52458 0.891044 2.94C0.861023 3.47 0.861023 3.64 0.861023 5C0.861023 6.36 0.861023 6.53 0.891044 7.06C0.899655 7.47542 0.979185 7.88633 1.12621 8.275C1.24838 8.60978 1.44514 8.91241 1.70161 9.16C1.95025 9.41522 2.25283 9.61168 2.58722 9.735C2.97616 9.88192 3.38735 9.9614 3.80307 9.97C4.33343 10 4.50355 10 5.8645 10C7.22544 10 7.39556 10 7.92593 9.97C8.34164 9.9614 8.75283 9.88192 9.14177 9.735C9.47679 9.61291 9.77963 9.41629 10.0274 9.16C10.2837 8.91129 10.4819 8.6091 10.6078 8.275C10.7505 7.8853 10.8282 7.47485 10.838 7.06C10.838 6.53 10.868 6.36 10.868 5C10.868 3.64 10.868 3.47 10.838 2.94ZM9.93733 7C9.93368 7.31739 9.87616 7.63185 9.76721 7.93C9.68732 8.1476 9.559 8.34421 9.39195 8.505C9.22966 8.67025 9.03331 8.79822 8.81655 8.88C8.51819 8.98888 8.20351 9.04636 7.8859 9.05C7.38555 9.075 7.20043 9.08 5.88451 9.08C4.5686 9.08 4.38347 9.08 3.88312 9.05C3.55334 9.05617 3.22496 9.00543 2.91245 8.9C2.70519 8.81404 2.51785 8.68639 2.36207 8.525C2.19599 8.36437 2.06928 8.1676 1.99181 7.95C1.86965 7.64758 1.8019 7.32597 1.79167 7C1.79167 6.5 1.76165 6.315 1.76165 5C1.76165 3.685 1.76165 3.5 1.79167 3C1.79391 2.67553 1.85319 2.35397 1.96679 2.05C2.05488 1.83896 2.19008 1.65083 2.36207 1.5C2.51408 1.32808 2.70195 1.19155 2.91245 1.1C3.21743 0.990022 3.53888 0.93254 3.86311 0.93C4.36346 0.93 4.54858 0.9 5.8645 0.9C7.18041 0.9 7.36554 0.9 7.86589 0.93C8.18349 0.93364 8.49818 0.991123 8.79653 1.1C9.02391 1.18433 9.22798 1.32142 9.39195 1.5C9.55591 1.65359 9.68403 1.84137 9.76721 2.05C9.87841 2.35447 9.93597 2.67589 9.93733 3C9.96234 3.5 9.96735 3.685 9.96735 5C9.96735 6.315 9.96234 6.5 9.93733 7ZM5.8645 2.435C5.35705 2.43599 4.86128 2.58726 4.43984 2.86971C4.01839 3.15216 3.69018 3.5531 3.49667 4.02188C3.30316 4.49066 3.25305 5.00623 3.35265 5.50346C3.45225 6.0007 3.69711 6.45727 4.05628 6.81549C4.41545 7.17371 4.87281 7.41751 5.37058 7.51607C5.86835 7.61464 6.38419 7.56355 6.85292 7.36927C7.32165 7.17498 7.72223 6.84622 8.00405 6.42452C8.28587 6.00281 8.43628 5.5071 8.43628 5C8.43695 4.66255 8.37084 4.3283 8.24177 4.01648C8.1127 3.70465 7.92321 3.4214 7.6842 3.18303C7.44519 2.94465 7.16137 2.75584 6.84908 2.62746C6.53679 2.49909 6.20218 2.43368 5.8645 2.435ZM5.8645 6.665C5.53496 6.665 5.21283 6.56735 4.93883 6.3844C4.66483 6.20144 4.45128 5.94141 4.32517 5.63717C4.19906 5.33293 4.16607 4.99815 4.23036 4.67517C4.29464 4.3522 4.45333 4.05552 4.68635 3.82267C4.91936 3.58981 5.21624 3.43124 5.53945 3.36699C5.86265 3.30275 6.19766 3.33572 6.50211 3.46174C6.80656 3.58776 7.06678 3.80117 7.24986 4.07498C7.43294 4.34878 7.53065 4.67069 7.53065 5C7.53065 5.21865 7.48756 5.43516 7.40383 5.63717C7.32009 5.83918 7.19737 6.02272 7.04265 6.17733C6.88793 6.33194 6.70426 6.45459 6.50211 6.53826C6.29996 6.62193 6.0833 6.665 5.8645 6.665Z" fill="white"/>
</svg>
