<svg width="12" height="12" viewBox="0 0 12 12" fill="none" xmlns="http://www.w3.org/2000/svg">
<path d="M8.63319 4.49956C8.1853 4.49948 7.74437 4.61028 7.3498 4.82206C7.31376 4.72723 7.24971 4.64559 7.16615 4.58799C7.08259 4.53039 6.98348 4.49954 6.88197 4.49956H4.88058C4.74788 4.49956 4.62061 4.55224 4.52678 4.646C4.43295 4.73977 4.38023 4.86695 4.38023 4.99956V10.9996C4.38023 11.1322 4.43295 11.2593 4.52678 11.3531C4.62061 11.4469 4.74788 11.4996 4.88058 11.4996H6.88197C7.01467 11.4996 7.14194 11.4469 7.23577 11.3531C7.3296 11.2593 7.38232 11.1322 7.38232 10.9996V8.24956C7.38232 8.11695 7.43503 7.98977 7.52887 7.89601C7.6227 7.80224 7.74996 7.74956 7.88267 7.74956C8.01537 7.74956 8.14263 7.80224 8.23646 7.89601C8.3303 7.98977 8.38301 8.11695 8.38301 8.24956V10.9996C8.38301 11.1322 8.43573 11.2593 8.52956 11.3531C8.62339 11.4469 8.75066 11.4996 8.88336 11.4996H10.8848C11.0175 11.4996 11.1447 11.4469 11.2385 11.3531C11.3324 11.2593 11.3851 11.1322 11.3851 10.9996V7.24956C11.3842 6.5205 11.0939 5.82156 10.5781 5.30604C10.0622 4.79051 9.36275 4.50048 8.63319 4.49956ZM10.3844 10.4996H9.38371V8.24956C9.38371 7.85173 9.22556 7.4702 8.94406 7.1889C8.66256 6.90759 8.28077 6.74956 7.88267 6.74956C7.48456 6.74956 7.10277 6.90759 6.82127 7.1889C6.53977 7.4702 6.38162 7.85173 6.38162 8.24956V10.4996H5.38093V5.49956H6.38162V5.85106C6.38157 5.9547 6.41375 6.05579 6.47371 6.14035C6.53366 6.22491 6.61843 6.28877 6.71629 6.32309C6.81415 6.3574 6.92026 6.36049 7.01995 6.33191C7.11963 6.30333 7.20797 6.2445 7.27274 6.16356C7.49736 5.87861 7.80542 5.67087 8.1539 5.56933C8.50238 5.46779 8.87389 5.47753 9.21656 5.59718C9.55923 5.71683 9.85597 5.94043 10.0653 6.23675C10.2747 6.53307 10.3862 6.88732 10.3844 7.25006V10.4996ZM3.37954 4.49956H1.37815C1.24545 4.49956 1.11818 4.55224 1.02435 4.646C0.930515 4.73977 0.8778 4.86695 0.8778 4.99956V10.9996C0.8778 11.1322 0.930515 11.2593 1.02435 11.3531C1.11818 11.4469 1.24545 11.4996 1.37815 11.4996H3.37954C3.51224 11.4996 3.6395 11.4469 3.73334 11.3531C3.82717 11.2593 3.87988 11.1322 3.87988 10.9996V4.99956C3.87988 4.86695 3.82717 4.73977 3.73334 4.646C3.6395 4.55224 3.51224 4.49956 3.37954 4.49956ZM2.87919 10.4996H1.8785V5.49956H2.87919V10.4996ZM2.38635 0.771059C2.16724 0.757718 1.94771 0.789081 1.74112 0.863238C1.53453 0.937394 1.34521 1.05279 1.18468 1.20241C1.02415 1.35202 0.895766 1.53272 0.807354 1.7335C0.718943 1.93428 0.67235 2.15095 0.670412 2.3703C0.668474 2.58965 0.711233 2.8071 0.796083 3.00941C0.880934 3.21172 1.0061 3.39466 1.16396 3.54708C1.32183 3.6995 1.50908 3.81822 1.71433 3.89601C1.91958 3.9738 2.13852 4.00903 2.35783 3.99956H2.37184C2.59107 4.01207 2.81055 3.97986 3.01692 3.90486C3.22329 3.82987 3.41221 3.71368 3.57219 3.56336C3.73217 3.41305 3.85984 3.23176 3.94744 3.03054C4.03504 2.82932 4.08072 2.61238 4.08171 2.39295C4.0827 2.17352 4.03896 1.95618 3.95318 1.75418C3.86739 1.55219 3.74135 1.36976 3.58273 1.21801C3.42411 1.06627 3.23624 0.948381 3.03055 0.87154C2.82487 0.794699 2.60568 0.760511 2.38635 0.771059ZM2.37184 2.99956H2.35783C2.27129 3.01012 2.18349 3.00206 2.10033 2.97593C2.01716 2.94979 1.94055 2.90619 1.87563 2.84804C1.81071 2.78989 1.75898 2.71854 1.72393 2.63877C1.68887 2.55901 1.67128 2.47267 1.67235 2.38556C1.67235 2.01206 1.95255 1.77106 2.38635 1.77106C2.47371 1.75957 2.56253 1.7669 2.64683 1.79256C2.73112 1.81822 2.80894 1.86161 2.87506 1.91982C2.94118 1.97804 2.99407 2.04972 3.03016 2.13005C3.06626 2.21038 3.08473 2.2975 3.08433 2.38556C3.08433 2.75856 2.80414 2.99956 2.37134 2.99956H2.37184Z" fill="white"/>
</svg>
