<svg width="12" height="10" viewBox="0 0 12 10" fill="none" xmlns="http://www.w3.org/2000/svg">
<path d="M11.3475 0.974819C11.3475 0.886567 11.3241 0.799891 11.2797 0.723596C11.2353 0.647301 11.1715 0.584106 11.0947 0.540431C11.018 0.496755 10.9311 0.474154 10.8428 0.474925C10.7544 0.475695 10.6679 0.49981 10.5919 0.544819C10.299 0.719224 9.98349 0.852794 9.65429 0.941819C9.18445 0.538956 8.58521 0.318524 7.96612 0.320819C7.28702 0.321632 6.63481 0.586134 6.1472 1.05848C5.65959 1.53082 5.37474 2.17404 5.35281 2.85232C4.01378 2.63898 2.80017 1.94058 1.94344 0.890319C1.89182 0.827804 1.82592 0.778596 1.7513 0.746837C1.67668 0.715078 1.59552 0.701696 1.51464 0.707819C1.43378 0.714506 1.35577 0.740762 1.28734 0.784318C1.21891 0.827874 1.16212 0.887422 1.12187 0.957819C0.915485 1.31777 0.796962 1.72128 0.775924 2.1356C0.754885 2.54991 0.831924 2.96334 1.00078 3.34232L0.999783 3.34282C0.923723 3.38952 0.860951 3.45498 0.817493 3.5329C0.774035 3.61083 0.751348 3.69861 0.751611 3.78782C0.750808 3.86122 0.755323 3.93457 0.76512 4.00732C0.816217 4.63634 1.09517 5.22514 1.54966 5.66332C1.51882 5.72208 1.50002 5.78639 1.49435 5.85249C1.48868 5.9186 1.49626 5.98517 1.51664 6.04832C1.71477 6.6654 2.1362 7.18638 2.69846 7.50932C2.12715 7.73004 1.51029 7.80696 0.902215 7.73332C0.789723 7.71934 0.675814 7.74395 0.579145 7.80311C0.482476 7.86227 0.408776 7.95249 0.370115 8.05898C0.331455 8.16546 0.330127 8.28192 0.366347 8.38926C0.402567 8.4966 0.47419 8.58847 0.569484 8.64982C1.61531 9.32284 2.833 9.6806 4.07692 9.68032C5.48752 9.69619 6.86383 9.24577 7.99176 8.39912C9.11969 7.55247 9.93602 6.35705 10.3138 4.99882C10.4904 4.4072 10.5805 3.7932 10.5814 3.17582L10.5809 3.07582C10.8422 2.79422 11.0446 2.46333 11.1762 2.10256C11.3078 1.74178 11.3661 1.35838 11.3475 0.974819ZM9.69332 2.58082C9.61059 2.67843 9.56866 2.80413 9.57624 2.93182C9.58124 3.01432 9.58074 3.09732 9.58074 3.17582C9.57968 3.69741 9.50317 4.21611 9.35359 4.71582C9.04521 5.87163 8.35759 6.89058 7.40087 7.60948C6.44415 8.32838 5.27368 8.70564 4.07692 8.68082C3.64719 8.68088 3.21894 8.63037 2.80103 8.53032C3.33406 8.35854 3.83243 8.09378 4.27306 7.74832C4.35431 7.68448 4.41378 7.59707 4.44331 7.49809C4.47283 7.39911 4.47096 7.29342 4.43795 7.19555C4.40494 7.09768 4.3424 7.01242 4.25894 6.9515C4.17548 6.89058 4.07519 6.85698 3.97185 6.85532C3.55592 6.84882 3.15876 6.68121 2.86408 6.38782C2.9388 6.37382 3.01301 6.35632 3.08673 6.33532C3.19482 6.30461 3.28942 6.23844 3.35529 6.14747C3.42116 6.05649 3.45446 5.946 3.44984 5.83381C3.44522 5.72161 3.40294 5.61423 3.3298 5.52897C3.25667 5.44372 3.15695 5.38554 3.0467 5.36382C2.80528 5.31617 2.57811 5.21351 2.38286 5.06383C2.1876 4.91415 2.02953 4.72149 1.92092 4.50082C2.01136 4.51317 2.10238 4.52085 2.19361 4.52382C2.30203 4.5256 2.4082 4.49283 2.49672 4.43026C2.58524 4.36769 2.65153 4.27857 2.68595 4.17582C2.719 4.0722 2.71734 3.96064 2.68123 3.85805C2.64511 3.75546 2.57651 3.66744 2.48582 3.60732C2.26563 3.46085 2.08524 3.26209 1.96081 3.02884C1.83637 2.79559 1.77178 2.53514 1.77282 2.27082C1.77282 2.23782 1.77382 2.20432 1.77582 2.17182C2.89733 3.21713 4.35207 3.83333 5.88367 3.91182C5.96101 3.91475 6.038 3.90007 6.10882 3.86889C6.17964 3.8377 6.24244 3.79083 6.29246 3.73182C6.34201 3.67244 6.3771 3.60239 6.39499 3.52718C6.41287 3.45196 6.41306 3.37362 6.39553 3.29832C6.36688 3.17892 6.35227 3.0566 6.352 2.93382C6.35253 2.50619 6.52276 2.09622 6.82535 1.79384C7.12794 1.49146 7.53819 1.32135 7.96612 1.32082C8.18635 1.32017 8.40432 1.36515 8.60627 1.45294C8.80822 1.54072 8.98976 1.66939 9.13944 1.83082C9.19715 1.89288 9.26979 1.93915 9.35045 1.96523C9.43111 1.99131 9.51711 1.99633 9.60026 1.97982C9.8058 1.93989 10.0084 1.8861 10.2067 1.81882C10.0715 2.09523 9.89874 2.35165 9.69332 2.58082Z" fill="white"/>
</svg>
